Coordinates
version=1
nRows=19
nColumns=24
inDegrees=yes

Units are S.I. units (second, meters, Newtons, ...)
Angles are in degrees.

endheader
time	pelvis_tilt	pelvis_list	pelvis_rotation	pelvis_tx	pelvis_ty	pelvis_tz	hip_flexion_r	hip_adduction_r	hip_rotation_r	knee_angle_r	ankle_angle_r	subtalar_angle_r	mtp_angle_r	hip_flexion_l	hip_adduction_l	hip_rotation_l	knee_angle_l	ankle_angle_l	subtalar_angle_l	mtp_angle_l	lumbar_extension	lumbar_bending	lumbar_rotation
      1.94000000	     12.17622323	      4.99440763	     -5.60537110	      0.40778553	      0.94114304	      0.30457083	      4.10529756	     -7.39026996	     -1.04330423	    -64.96635594	     16.97485635	      3.82479412	     50.18450767	     -1.02475932	      9.66232910	     -6.56261199	    -20.45260025	     21.58474260	      3.03786051	     18.04798361	    -28.01842845	     -5.96810793	      6.12191695
      1.94500000	     12.36390297	      4.99879766	     -5.46563912	      0.41406735	      0.94209070	      0.30463044	      4.53036813	     -7.38376380	     -1.20861177	    -64.52989150	     17.42411903	      3.81094376	     50.14239706	     -1.95378271	      9.69663213	     -6.44026439	    -19.91697699	     21.76076736	      3.39514005	     17.92699670	    -28.20567700	     -5.85588092	      5.91775276
      1.95000000	     12.54118362	      4.98126426	     -5.30111718	      0.42036584	      0.94295108	      0.30464626	      4.93790639	     -7.37956438	     -1.42651155	    -64.07811813	     17.80240933	      3.85929431	     49.81564394	     -2.88686807	      9.70010239	     -6.31724177	    -19.35555116	     21.92958821	      3.75439720	     17.68369509	    -28.37401463	     -5.70703183	      5.73381289
      1.95500000	     12.59996814	      4.95287118	     -5.13541830	      0.42639900	      0.94357623	      0.30485025	      5.50705478	     -7.29845548	     -1.56220228	    -63.61278476	     18.15375173	      4.03893804	     48.49699327	     -3.59736507	      9.64317686	     -6.40179635	    -18.94206586	     22.28398645	      4.32193227	     16.67542730	    -28.45140130	     -5.55566428	      5.55266120
      1.96000000	     12.65890700	      4.91736360	     -4.91475177	      0.43263079	      0.94407710	      0.30492907	      6.01000651	     -7.25729541	     -1.83155375	    -63.03957442	     18.55005086	      4.38551522	     48.42160199	     -4.26118037	      9.57314174	     -6.41908293	    -18.65655780	     22.54083097	      4.79594928	     16.66774997	    -28.51142882	     -5.36964210	      5.34213789
      1.96500000	     12.93673970	      4.83571099	     -4.81140528	      0.43882974	      0.94494776	      0.30526463	      6.26330333	     -7.14425254	     -1.97748596	    -62.34379881	     18.88878144	      4.24033588	     47.67448555	     -5.21301320	      9.43132967	     -6.57322201	    -18.28038072	     22.79094674	      5.55355175	     16.20208120	    -28.81021233	     -5.20371835	      5.16352405
      1.97000000	     13.00846678	      4.85389407	     -4.62571088	      0.44507753	      0.94535634	      0.30539172	      6.74297676	     -7.15406869	     -2.18065975	    -61.64902435	     19.14554363	      4.11341777	     47.63669491	     -5.88663018	      9.38510002	     -6.47216654	    -18.00540942	     23.04477190	      6.16802884	     16.16712745	    -28.86964907	     -5.08762919	      4.88247247
      1.97500000	     13.20534972	      4.82305268	     -4.51531437	      0.45137549	      0.94588509	      0.30560379	      7.05457062	     -7.11739819	     -2.35778406	    -60.87786095	     19.35547918	      3.93495879	     47.49321490	     -6.75813343	      9.31655373	     -6.46089146	    -17.60378294	     23.26546477	      6.74123858	     16.05516421	    -29.05300228	     -4.95491546	      4.75929967
      1.98000000	     13.38693028	      4.79386795	     -4.39845601	      0.45761063	      0.94632629	      0.30575912	      7.35710058	     -7.08266319	     -2.51373338	    -60.03202678	     19.62764011	      3.98420388	     47.31981690	     -7.61168761	      9.26622129	     -6.47222953	    -17.18681675	     23.50970342	      7.21144574	     15.88234651	    -29.23259180	     -4.81011773	      4.64677157
      1.98500000	     13.52242113	      4.75711505	     -4.34697675	      0.46381745	      0.94665747	      0.30599766	      7.71153914	     -7.03101832	     -2.60222683	    -59.12962163	     19.91904881	      4.10985874	     46.86229005	     -8.42893489	      9.22613690	     -6.48814722	    -16.72428747	     23.76935551	      7.56303670	     15.23393642	    -29.36653202	     -4.69422214	      4.62691108
      1.99000000	     13.68292842	      4.72958682	     -4.25252990	      0.47012245	      0.94701997	      0.30621757	      7.96261332	     -7.02301886	     -2.75407524	    -58.08530744	     20.24329395	      4.56655822	     46.66808232	     -9.32375431	      9.20322310	     -6.36353192	    -16.17659077	     23.89090423	      7.77197725	     14.98337010	    -29.51107077	     -4.55802554	      4.46119989
      1.99500000	     13.77698146	      4.70307721	     -4.13613010	      0.47616390	      0.94719414	      0.30640300	      8.32555416	     -6.98380267	     -2.87013290	    -57.08735711	     20.45120687	      4.85759377	     46.44846564	    -10.13825407	      9.19547988	     -6.07335458	    -15.62088503	     23.99842834	      7.78103621	     14.77063235	    -29.61677112	     -4.42986446	      4.36210965
      2.00000000	     13.90650697	      4.70345663	     -4.03650219	      0.48240313	      0.94733926	      0.30660248	      8.62272686	     -6.99558607	     -3.01587430	    -56.05433029	     20.65108300	      5.03987161	     46.32597741	    -10.98852912	      9.20777689	     -5.74631122	    -15.10129830	     24.11248477	      7.80925427	     14.62544347	    -29.73025689	     -4.33691094	      4.19758449
      2.00500000	     14.07825446	      4.63157028	     -3.90418581	      0.48847952	      0.94747370	      0.30685880	      8.77040120	     -6.91260796	     -3.23508871	    -54.82232097	     21.02635705	      5.18717485	     45.26776406	    -11.82424900	      9.11937261	     -5.52499427	    -14.68746787	     24.24441145	      7.96735360	     14.13105125	    -29.90820716	     -4.15210726	      4.10955220
      2.01000000	     14.30035880	      4.62427363	     -3.73961679	      0.49472543	      0.94764703	      0.30707426	      8.83001878	     -6.90345319	     -3.44129361	    -53.52821658	     21.12367050	      5.24160766	     45.19097480	    -12.75689378	      9.10764206	     -5.12430214	    -14.18964273	     24.41470626	      7.92089890	     14.02915519	    -30.13519991	     -4.01193822	      3.90119054
      2.01500000	     14.50302066	      4.56659717	     -3.67352599	      0.50105923	      0.94771023	      0.30737684	      8.91840088	     -6.81841561	     -3.50337918	    -52.22608817	     21.10140814	      5.24092718	     45.15658008	    -13.68233495	      9.06601961	     -4.88475240	    -13.67381935	     24.55593536	      7.81526053	     13.88419225	    -30.32794779	     -3.87312801	      3.84274213
      2.02000000	     14.57829937	      4.50257279	     -3.56409814	      0.50708424	      0.94749121	      0.30767971	      9.16441047	     -6.75929836	     -3.69205143	    -50.92607483	     21.06875842	      5.42768583	     45.13297724	    -14.36708321	      8.98364567	     -4.72364256	    -13.30478534	     24.73200645	      7.86232916	     13.70565423	    -30.41721324	     -3.71248755	      3.74713214
      2.02500000	     14.76638437	      4.43839188	     -3.54246675	      0.51317243	      0.94733052	      0.30827340	      9.25061835	     -6.66042299	     -3.77498626	    -49.51020724	     21.08560525	      5.47526042	     44.96998494	    -15.14440636	      8.90072355	     -4.77366913	    -13.01860769	     25.05317141	      8.05612378	     12.57208992	    -30.61805831	     -3.61262263	      3.70363923
      2.03000000	     14.86031293	      4.37755026	     -3.41630709	      0.51935109	      0.94705342	      0.30862959	      9.36560946	     -6.55154820	     -3.88658569	    -47.99820182	     21.04508090	      5.47910739	     44.92946951	    -15.83223611	      8.81073002	     -4.53451663	    -12.72629148	     25.28840154	      8.07096192	     12.53050777	    -30.70683378	     -3.45776169	      3.62658717
